<svg xmlns="http://www.w3.org/2000/svg" viewBox="0 0 1920 1080"><defs><style>.cls-1{fill:#d2232a;}.cls-2{fill:#939598;}.cls-10,.cls-11,.cls-12,.cls-2,.cls-3,.cls-6,.cls-7,.cls-8,.cls-9{stroke:#231f20;}.cls-10,.cls-11,.cls-12,.cls-2,.cls-3,.cls-6,.cls-7{stroke-miterlimit:10;stroke-width:2px;}.cls-3{fill:#f1f2f2;}.cls-11,.cls-4,.cls-5,.cls-8{fill:#231f20;}.cls-4{isolation:isolate;opacity:0.25;}.cls-6{fill:#ed1c24;}.cls-7{fill:#39b54a;}.cls-8,.cls-9{stroke-miterlimit:10;stroke-width:2px;}.cls-12,.cls-9{fill:#58595b;}.cls-10{fill:#00a79d;}</style></defs><g id="Calque_5" data-name="Calque 5"><polygon class="cls-1" points="1840.77 818 1840.77 819.42 87.23 819.42 87.23 818 0 818 0 1080 1920 1080 1920 818 1840.77 818"/><path class="cls-2" d="M1840.77,818v1.42H87.23V818H11v8.38c0,6.62,6.79,13,18.87,17.67l190.64,76.76,2.23.77,5.28,2.1c12,4.69,28.44,7.33,45.54,7.32H1813.78c23.55,0,59-7.78,70.21-15.11,17.58-5,28-12.88,28-21.3V818Z"/><path class="cls-3" d="M1840.77,818v1.42H87.23V818H18.32v1.33c0,6.64,6.88,13,19.14,17.71l193.38,77.11c12.25,4.7,28.87,7.33,46.2,7.33H1846.59c36.14,0,65.41-11.23,65.41-25.06V818Z"/><polygon class="cls-4" points="1840.77 818 1840.77 819.42 87.23 819.42 87.23 818 76 818 76 829 1848 829 1848 818 1840.77 818"/><path class="cls-5" d="M1719.87,849.82h121.77a2.91,2.91,0,0,0,0-5.82H1719.87a2.89,2.89,0,0,0-2.87,2.91V847a2.86,2.86,0,0,0,2.87,2.86Z"/><path class="cls-5" d="M1841.64,879.15H1719.87a2.91,2.91,0,0,0,0,5.8h121.77a2.91,2.91,0,0,0,0-5.8Z"/><path class="cls-5" d="M1841.64,896.71H1719.87a2.91,2.91,0,0,0,0,5.8h121.77a2.91,2.91,0,0,0,0-5.8Z"/><path class="cls-5" d="M1841.64,861.59H1719.87a2.91,2.91,0,0,0,0,5.79h121.77a2.91,2.91,0,0,0,0-5.79Z"/><ellipse class="cls-6" cx="260.3" cy="875.15" rx="36.06" ry="36.15"/><g id="btn_b" data-name="btn b"><path class="cls-7" d="M650,961.62v82.76c0,11.95,7.55,21.63,16.87,21.62l701.29-.52c9.3,0,16.84-9.69,16.84-21.62V961.62c0-11.94-7.55-21.62-16.86-21.62H666.86C657.55,940,650,949.68,650,961.62Z"/><ellipse class="cls-8" cx="122.8" cy="977.63" rx="37.39" ry="37.32" transform="translate(-364.78 121.41) rotate(-22.5)"/><ellipse class="cls-9" cx="127.41" cy="973.01" rx="37.39" ry="37.32" transform="translate(-362.66 122.82) rotate(-22.5)"/><path class="cls-6" d="M269.18,963.51H358.3c4.92,0,8.91-4.56,8.91-10.3S363.34,943,358.3,943H269.18c-4.92,0-8.91,4.56-8.91,10.28S264.26,963.51,269.18,963.51Z"/><path class="cls-10" d="M410.88,963.51h89.21c4.92,0,8.91-4.56,8.91-10.3S504.92,943,500.09,943H411c-4.92,0-8.91,4.56-8.91,10.28S406,963.51,410.88,963.51Z"/><path class="cls-11" d="M1837.54,988.1h-37v-37a2.84,2.84,0,0,0-2.82-2.84h-28.3c-1.63,0-7.08,6.45-7.08,8V988.1h-32.64c-1.63,0-7.1,6.44-7.1,8v28.28a2.84,2.84,0,0,0,2.84,2.84h37v37a2.84,2.84,0,0,0,2.83,2.82h28.29c1.63,0,7.09-6.43,7.09-8v-31.77h32.63c1.64,0,7.1-6.43,7.1-8V990.94A2.84,2.84,0,0,0,1837.54,988.1Z"/><path class="cls-12" d="M1837.54,988.1h-37v-37a2.84,2.84,0,0,0-2.82-2.84h-28.3a2.84,2.84,0,0,0-2.84,2.84v37h-36.95a2.84,2.84,0,0,0-2.84,2.84v28.3a2.83,2.83,0,0,0,2.83,2.82h37v37a2.84,2.84,0,0,0,2.84,2.84h28.3a2.84,2.84,0,0,0,2.82-2.84v-37h37a2.83,2.83,0,0,0,2.84-2.81V990.94A2.84,2.84,0,0,0,1837.54,988.1Z"/><ellipse class="cls-12" cx="1783.61" cy="1005.09" rx="12.37" ry="12.43" transform="translate(-188.3 1555.58) rotate(-45)"/></g></g></svg>