<svg id="Calque_3" data-name="Calque 3" xmlns="http://www.w3.org/2000/svg" viewBox="0 0 1920 1080"><defs><style>.cls-1{fill:#d2232a;}.cls-10,.cls-2{fill:#ed1c24;}.cls-3{fill:#939598;}.cls-10,.cls-11,.cls-12,.cls-3,.cls-4,.cls-7,.cls-8,.cls-9{stroke:#231f20;stroke-miterlimit:10;stroke-width:2px;}.cls-4{fill:#f1f2f2;}.cls-5{fill:#231f20;isolation:isolate;opacity:0.25;}.cls-6{fill:#b0282f;}.cls-7{fill:none;}.cls-8{fill:#fff;}.cls-9{fill:#00aeef;}.cls-11{fill:#fff200;}.cls-12{fill:#00a651;}</style></defs><polygon class="cls-1" points="87.23 133 87.23 131.7 1840.77 131.7 1840.77 133 1913 819 1920 819 1920 0 0 0.41 0 0.41 0 819 10 819 87.23 133"/><ellipse class="cls-2" cx="961.69" cy="112.6" rx="8.21" ry="7.6"/><ellipse class="cls-2" cx="1009.98" cy="112.6" rx="8.21" ry="7.6"/><path class="cls-3" d="M87.23,818V131.7H1840.77V818H1912V127.41c0-14.59-30.6-26.42-68.35-26.42H105.06c-21.82,0-42.3,4.08-55,10.92C31.13,116.27,11,130,11,139.13V818Z"/><path class="cls-4" d="M87.23,818V131.7H1840.77V818H1912V126c0-13.83-29.27-25-65.41-25.06H83.13c-35.92.13-64.85,11.31-64.81,25.06V818Z"/><polygon class="cls-5" points="87.23 818 87.23 131.7 1840.77 131.7 1840.77 818 1848 818 1848 124 76 124 76 818 87.23 818"/><g id="barre"><path class="cls-6" d="M1929,18l-816.72-1.79H702.8c-16.53,0-32.51,2.15-45.15,6L489.77,76.18c-12.69,3.91-28.75,6-45.35,6.06H-6V93H444.23c23.5,0,46.25-3,64.26-8.53l168.07-54A93.18,93.18,0,0,1,702.8,27L1929,27Z"/><path class="cls-7" d="M-6,82.24H444.23c16.6,0,32.66-2.15,45.35-6.06L657.65,22.25c12.69-3.9,28.75-6,45.34-6h384.86L1949,18"/><path class="cls-7" d="M-6,93H444.23c23.5,0,46.25-3,64.26-8.53l168.07-54A93.18,93.18,0,0,1,702.8,27h391.78L1977,27"/></g><g id="btn_hg" data-name="btn hg"><circle class="cls-8" cx="51.34" cy="42.91" r="30.91"/><circle class="cls-9" cx="51.34" cy="42.91" r="24.4"/><ellipse class="cls-10" cx="95.71" cy="22.66" rx="7.61" ry="7.72"/><ellipse class="cls-11" cx="121.46" cy="22.66" rx="7.61" ry="7.72"/><ellipse class="cls-12" cx="147.2" cy="22.66" rx="7.61" ry="7.72"/></g></svg>